<?xml version="1.0" encoding="UTF-8"?>
<svg width="21px" height="24px" viewBox="0 0 21 24" version="1.1" xmlns="http://www.w3.org/2000/svg" xmlns:xlink="http://www.w3.org/1999/xlink">
    <title>预售火热</title>
    <g id="页面-1" stroke="none" stroke-width="1" fill="none" fill-rule="evenodd">
        <g id="机电设备城" transform="translate(-360.000000, -2743.000000)" fill-rule="nonzero">
            <g id="编组-9备份" transform="translate(360.000000, 2743.000000)">
                <g id="预售火热" transform="translate(0.000000, -0.000000)">
                    <rect id="矩形" fill="#000000" opacity="0" x="0.333028348" y="0" width="20" height="20"></rect>
                    <path d="M7.79178725,0.643841953 C7.41600034,1.84583349 6.39271104,4.00572261 3.60987732,6.8702481 C-1.19086031,11.8180453 -1.82711303,19.7887011 5.549225,23.7081586 C6.15479245,24.0298513 6.66030962,23.8317374 7.04018949,23.4344804 C8.29632307,22.1232234 8.84164493,20.1992423 8.67823746,17.6645715 C8.63228135,16.9660627 8.94375365,16.7842728 9.56057076,17.2622163 C11.3099426,18.6163417 12.4516646,20.702701 12.4516646,22.9453111 C12.4516646,23.7081586 12.7570094,24.1115431 13.4688025,23.9736987 C18.1725536,23.0617572 23.9046683,16.3175789 17.727306,6.44235367 C17.3576226,5.93990024 16.8112715,5.93990024 16.8204627,6.63024712 C16.8306592,7.477874 16.7336488,8.32344242 16.5304366,9.14655937 C16.3905098,9.71842566 15.8523447,9.71026367 15.7257021,9.14655937 C14.955698,5.71627112 12.8152205,2.80066734 9.3032405,0.394673689 C8.35551549,-0.253810055 8.01134734,-0.0546669273 7.79178725,0.644871179 L7.79178725,0.643841953 Z" id="路径" fill="#F4420A"></path>
                </g>
            </g>
        </g>
    </g>
</svg>